<svg id="Layer_1" data-name="Layer 1" xmlns="http://www.w3.org/2000/svg" viewBox="0 0 800 800"><defs><style>.cls-1{fill:#fb3640;}.cls-2{fill:#fff;}.cls-3{font-size:300px;fill:#242325;font-family:Mistral;}.cls-4{fill:none;}</style></defs><rect class="cls-1" width="800" height="800" rx="50"/><text x="-225.77" y="-191.11"/><path class="cls-2" d="M847.8,725.46c-74.2-74.2-74.2-194.5,0-268.7L939,365.54a62,62,0,0,0,0-87.68h0a62,62,0,0,0-87.68,0l-91.22,91.22c-74.2,74.2-194.5,74.2-268.7,0L400.2,277.86a62,62,0,0,0-87.68,0h0a62,62,0,0,0,0,87.68l91.22,91.22c74.2,74.2,74.2,194.5,0,268.7l-91.22,91.22a62,62,0,0,0,0,87.68h0a62,62,0,0,0,87.68,0l91.22-91.22c74.2-74.2,194.5-74.2,268.7,0l91.22,91.22a62,62,0,0,0,87.68,0h0a62,62,0,0,0,0-87.68Z" transform="translate(-225.77 -191.11)"/><text class="cls-3" transform="translate(286.14 501.22)">JG</text><ellipse cx="754.48" cy="49.39" rx="9.5" ry="10"/><ellipse cx="56.73" cy="749.89" rx="9.5" ry="10"/><ellipse cx="45.73" cy="49.39" rx="9.5" ry="10"/><ellipse cx="754.48" cy="749.89" rx="9.5" ry="10"/><line class="cls-4" x1="35.23" y1="51.89" x2="0.23" y2="51.89"/><line class="cls-4" x1="754.23" y1="755.89" x2="754.23" y2="799.89"/><line class="cls-4" x1="56.23" y1="755.89" x2="56.23" y2="799.89"/></svg>